# xmcd
#
# Track frame offsets:
#	150
#	11719
#	25551
#	43584
#	64109
#	81615
#	95389
#	115722
#	131539
#	146487
#	165594
#	179471
#
# Disc length: 2552 seconds
#
# Revision: 0
# Processed by: cddbd v1.5.1PL0 Copyright (c) Steve Scherf et al.
# Submitted via: dBpowerAMP V4.0
#
DISCID=9909f60c
DTITLE=Various Artist - Best of the Blues Vol. 2
DYEAR=2004
DGENRE=Blues
TTITLE0=Elmore James - Shake Your Moneymaker
TTITLE1=Muddy Waters - I'm Ready
TTITLE2=Tony Joe White - Steamy Windows
TTITLE3=Lonnie Mack (w/SRV) - If You Have to Know
TTITLE4=Fleetwood Mac - If You Be My Baby
TTITLE5=Howlin' Wolf - Rockin' Daddy
TTITLE6=Jeff Healey band - Evil and Here to Stay
TTITLE7=Robert Cray - Phone Booth
TTITLE8=Snooky Pryor - Shake Your Boogie
TTITLE9=John Mayall and The Bluesbreakers - When The Devil Starts Crying
TTITLE10=Lowell Fulson - Step At a Time
TTITLE11=Jimmy Reed - Bright Lights, Big City
EXTD=
EXTT0=
EXTT1=
EXTT2=
EXTT3=
EXTT4=
EXTT5=
EXTT6=
EXTT7=
EXTT8=
EXTT9=
EXTT10=
EXTT11=
PLAYORDER=
